<svg width="137" height="94" viewBox="0 0 137 94" fill="none" xmlns="http://www.w3.org/2000/svg">
<path d="M26.6315 21.3155C28.7077 21.3155 30.4034 21.7654 31.7183 22.6651C33.0333 23.5648 33.6908 24.7414 33.6908 26.1948C33.6908 27.6136 33.1198 29.0323 31.9779 30.4511C30.8705 31.8699 29.4171 33.0638 27.6177 34.0327C25.8529 35.0017 24.0361 35.5553 22.1675 35.6937L21.6484 34.7075C23.4824 34.2577 25.0396 33.3752 26.32 32.0603C27.6004 30.7107 28.2406 29.3265 28.2406 27.9077C28.2406 26.7657 27.8426 25.866 27.0467 25.2085C26.2508 24.5164 25.1954 24.1704 23.8804 24.1704C21.5273 24.1704 19.4164 24.949 17.5477 26.5062C15.6791 28.0288 14.2084 30.1397 13.1356 32.8389C12.0975 35.538 11.5784 38.5832 11.5784 41.9745C11.5784 46.1271 12.2705 49.3799 13.6547 51.733C15.0389 54.0861 17.1152 55.2627 19.8835 55.2627C21.4754 55.2627 22.998 54.6917 24.4514 53.5498C25.9394 52.4078 27.1505 50.9371 28.0849 49.1377C29.0192 47.3036 29.5036 45.4177 29.5383 43.4798L34.4694 41.7669V62.6854L29.9016 64.5541V48.6705H29.5902C29.0711 50.8506 28.206 52.7539 26.9948 54.3803C25.8183 56.0067 24.4168 57.2525 22.7903 58.1176C21.1985 58.9827 19.5375 59.4153 17.8073 59.4153C15.4541 59.4153 13.3952 58.8616 11.6303 57.7542C9.86549 56.6123 8.49861 55.0032 7.52968 52.9269C6.59535 50.8506 6.12819 48.4283 6.12819 45.6599C6.12819 41.1267 7.02791 37.0087 8.82735 33.306C10.6268 29.5687 13.0837 26.6446 16.1981 24.5337C19.3472 22.3882 22.8249 21.3155 26.6315 21.3155ZM47.8176 58.0138L42.9903 59.7267V22.9246L47.8176 21.1079V58.0138ZM75.9533 21.3155C78.0295 21.3155 79.7252 21.7654 81.0402 22.6651C82.3551 23.5648 83.0126 24.7414 83.0126 26.1948C83.0126 27.6136 82.4416 29.0323 81.2997 30.4511C80.1923 31.8699 78.7389 33.0638 76.9395 34.0327C75.1747 35.0017 73.3579 35.5553 71.4893 35.6937L70.9702 34.7075C72.8042 34.2577 74.3614 33.3752 75.6418 32.0603C76.9222 30.7107 77.5624 29.3265 77.5624 27.9077C77.5624 26.7657 77.1644 25.866 76.3685 25.2085C75.5726 24.5164 74.5172 24.1704 73.2022 24.1704C70.8491 24.1704 68.7382 24.949 66.8695 26.5062C65.0009 28.0288 63.5302 30.1397 62.4574 32.8389C61.4193 35.538 60.9002 38.5832 60.9002 41.9745C60.9002 46.1271 61.5923 49.3799 62.9765 51.733C64.3607 54.0861 66.437 55.2627 69.2054 55.2627C70.7972 55.2627 72.3198 54.6917 73.7732 53.5498C75.2612 52.4078 76.4723 50.9371 77.4067 49.1377C78.341 47.3036 78.8255 45.4177 78.8601 43.4798L83.7912 41.7669V62.6854L79.2234 64.5541V48.6705H78.912C78.3929 50.8506 77.5278 52.7539 76.3166 54.3803C75.1401 56.0067 73.7386 57.2525 72.1121 58.1176C70.5203 58.9827 68.8593 59.4153 67.1291 59.4153C64.776 59.4153 62.717 58.8616 60.9521 57.7542C59.1873 56.6123 57.8204 55.0032 56.8515 52.9269C55.9172 50.8506 55.45 48.4283 55.45 45.6599C55.45 41.1267 56.3497 37.0087 58.1492 33.306C59.9486 29.5687 62.4055 26.6446 65.52 24.5337C68.669 22.3882 72.1467 21.3155 75.9533 21.3155ZM103.264 21.2117C105.583 21.2117 107.78 21.7481 109.857 22.8208C111.933 23.8589 113.68 25.3469 115.099 27.2848L111.051 32.2679C110.185 29.8456 108.888 27.8385 107.157 26.2467C105.462 24.6549 103.437 23.8589 101.084 23.8589C98.8351 23.8589 97.0875 24.4991 95.8418 25.7795C94.596 27.0599 93.9731 28.7036 93.9731 30.7107C93.9731 32.5793 94.423 34.1365 95.3227 35.3823C96.2224 36.6281 97.3125 37.6316 98.5928 38.3929C99.8732 39.1542 101.603 40.0193 103.784 40.9883C105.86 41.9226 107.486 42.7358 108.663 43.4279C109.874 44.12 110.895 45.0197 111.725 46.1271C112.556 47.2344 112.971 48.6013 112.971 50.2277C113.006 53.2383 112.037 55.5568 110.064 57.1833C108.092 58.8097 105.531 59.6229 102.382 59.6229C100.064 59.6229 97.8488 59.173 95.7379 58.2733C93.6617 57.339 92.0006 55.9375 90.7549 54.0688L94.8036 49.5529C95.9802 52.3213 97.4163 54.2938 99.1119 55.4703C100.808 56.6123 102.451 57.1833 104.043 57.1833C105.531 57.1833 106.794 56.7853 107.832 55.9894C108.905 55.1589 109.441 54.0861 109.441 52.7712C109.441 51.56 109.061 50.5046 108.299 49.6048C107.573 48.6705 106.656 47.8919 105.548 47.269C104.441 46.6115 102.936 45.8502 101.032 44.9851C98.6101 43.8778 96.6723 42.8742 95.2189 41.9745C93.7655 41.0748 92.5197 39.8982 91.4816 38.4448C90.4434 36.9568 89.9244 35.1574 89.9244 33.0465C89.9244 30.8318 90.4953 28.8247 91.6373 27.0253C92.8139 25.1912 94.423 23.7724 96.4646 22.7689C98.5063 21.7308 100.773 21.2117 103.264 21.2117Z" fill="#999999" fill-opacity="0.6"/>
<path d="M26.6315 26.1036C28.7077 26.1036 30.4034 26.5535 31.7183 27.4532C33.0333 28.3529 33.6908 29.5295 33.6908 30.9828C33.6908 32.4016 33.1198 33.8204 31.9779 35.2392C30.8705 36.658 29.4171 37.8519 27.6177 38.8208C25.8529 39.7897 24.0361 40.3434 22.1675 40.4818L21.6484 39.4956C23.4824 39.0457 25.0396 38.1633 26.32 36.8483C27.6004 35.4988 28.2406 34.1146 28.2406 32.6958C28.2406 31.5538 27.8426 30.6541 27.0467 29.9966C26.2508 29.3045 25.1954 28.9585 23.8804 28.9585C21.5273 28.9585 19.4164 29.7371 17.5477 31.2943C15.6791 32.8169 14.2084 34.9278 13.1356 37.6269C12.0975 40.3261 11.5784 43.3713 11.5784 46.7626C11.5784 50.9151 12.2705 54.168 13.6547 56.5211C15.0389 58.8742 17.1152 60.0508 19.8835 60.0508C21.4754 60.0508 22.998 59.4798 24.4514 58.3378C25.9394 57.1959 27.1505 55.7252 28.0849 53.9258C29.0192 52.0917 29.5036 50.2057 29.5383 48.2679L34.4694 46.555V67.4735L29.9016 69.3421V53.4586H29.5902C29.0711 55.6387 28.206 57.5419 26.9948 59.1684C25.8183 60.7948 24.4168 62.0405 22.7903 62.9057C21.1985 63.7708 19.5375 64.2033 17.8073 64.2033C15.4541 64.2033 13.3952 63.6497 11.6303 62.5423C9.86549 61.4004 8.49861 59.7912 7.52968 57.715C6.59535 55.6387 6.12819 53.2164 6.12819 50.448C6.12819 45.9148 7.02791 41.7968 8.82735 38.0941C10.6268 34.3568 13.0837 31.4327 16.1981 29.3218C19.3472 27.1763 22.8249 26.1036 26.6315 26.1036ZM47.8176 62.8019L42.9903 64.5148V27.7127L47.8176 25.896V62.8019ZM75.9533 26.1036C78.0295 26.1036 79.7252 26.5535 81.0402 27.4532C82.3551 28.3529 83.0126 29.5295 83.0126 30.9828C83.0126 32.4016 82.4416 33.8204 81.2997 35.2392C80.1923 36.658 78.7389 37.8519 76.9395 38.8208C75.1747 39.7897 73.3579 40.3434 71.4893 40.4818L70.9702 39.4956C72.8042 39.0457 74.3614 38.1633 75.6418 36.8483C76.9222 35.4988 77.5624 34.1146 77.5624 32.6958C77.5624 31.5538 77.1644 30.6541 76.3685 29.9966C75.5726 29.3045 74.5172 28.9585 73.2022 28.9585C70.8491 28.9585 68.7382 29.7371 66.8695 31.2943C65.0009 32.8169 63.5302 34.9278 62.4574 37.6269C61.4193 40.3261 60.9002 43.3713 60.9002 46.7626C60.9002 50.9151 61.5923 54.168 62.9765 56.5211C64.3607 58.8742 66.437 60.0508 69.2054 60.0508C70.7972 60.0508 72.3198 59.4798 73.7732 58.3378C75.2612 57.1959 76.4723 55.7252 77.4067 53.9258C78.341 52.0917 78.8255 50.2057 78.8601 48.2679L83.7912 46.555V67.4735L79.2234 69.3421V53.4586H78.912C78.3929 55.6387 77.5278 57.5419 76.3166 59.1684C75.1401 60.7948 73.7386 62.0405 72.1121 62.9057C70.5203 63.7708 68.8593 64.2033 67.1291 64.2033C64.776 64.2033 62.717 63.6497 60.9521 62.5423C59.1873 61.4004 57.8204 59.7912 56.8515 57.715C55.9172 55.6387 55.45 53.2164 55.45 50.448C55.45 45.9148 56.3497 41.7968 58.1492 38.0941C59.9486 34.3568 62.4055 31.4327 65.52 29.3218C68.669 27.1763 72.1467 26.1036 75.9533 26.1036ZM103.264 25.9998C105.583 25.9998 107.78 26.5361 109.857 27.6089C111.933 28.647 113.68 30.135 115.099 32.0729L111.051 37.056C110.185 34.6336 108.888 32.6266 107.157 31.0348C105.462 29.4429 103.437 28.647 101.084 28.647C98.8351 28.647 97.0875 29.2872 95.8418 30.5676C94.596 31.848 93.9731 33.4917 93.9731 35.4988C93.9731 37.3674 94.423 38.9246 95.3227 40.1704C96.2224 41.4162 97.3125 42.4197 98.5928 43.181C99.8732 43.9423 101.603 44.8074 103.784 45.7764C105.86 46.7107 107.486 47.5239 108.663 48.216C109.874 48.9081 110.895 49.8078 111.725 50.9151C112.556 52.0225 112.971 53.3894 112.971 55.0158C113.006 58.0264 112.037 60.3449 110.064 61.9713C108.092 63.5978 105.531 64.411 102.382 64.411C100.064 64.411 97.8488 63.9611 95.7379 63.0614C93.6617 62.1271 92.0006 60.7256 90.7549 58.8569L94.8036 54.341C95.9802 57.1094 97.4163 59.0818 99.1119 60.2584C100.808 61.4004 102.451 61.9713 104.043 61.9713C105.531 61.9713 106.794 61.5734 107.832 60.7775C108.905 59.947 109.441 58.8742 109.441 57.5592C109.441 56.3481 109.061 55.2926 108.299 54.3929C107.573 53.4586 106.656 52.68 105.548 52.0571C104.441 51.3996 102.936 50.6383 101.032 49.7732C98.6101 48.6658 96.6723 47.6623 95.2189 46.7626C93.7655 45.8629 92.5197 44.6863 91.4816 43.2329C90.4434 41.7449 89.9244 39.9455 89.9244 37.8346C89.9244 35.6199 90.4953 33.6128 91.6373 31.8134C92.8139 29.9793 94.423 28.5605 96.4646 27.557C98.5063 26.5188 100.773 25.9998 103.264 25.9998Z" fill="#DA370E"/>
<path d="M1.11523 93.0001C1.11523 93.0001 30.2808 80.0034 48.4325 80.0235C76.2682 80.0542 87.3813 91.5104 111.096 88.6745C119.11 87.7162 124.943 84.1128 129 82.4617" stroke="#DA370E" stroke-opacity="0.8" stroke-width="2.16279"/>
</svg>
