<svg width="50" height="50" viewBox="0 0 50 50" fill="none" xmlns="http://www.w3.org/2000/svg">
<g clip-path="url(#clip0)">
<path d="M20.9657 39.3389C18.541 39.3389 16.5684 41.3115 16.5684 43.7362C16.5684 46.161 18.541 48.1336 20.9657 48.1336C23.3904 48.1336 25.3631 46.161 25.3631 43.7362C25.363 41.3115 23.3903 39.3389 20.9657 39.3389ZM20.9657 45.6781C19.8948 45.6781 19.0236 44.8068 19.0236 43.736C19.0236 42.6651 19.8949 41.7939 20.9657 41.7939C22.0365 41.7939 22.9078 42.6652 22.9078 43.736C22.9078 44.807 22.0365 45.6781 20.9657 45.6781Z" fill="black"/>
<path d="M36.3896 39.3389C33.9648 39.3389 31.9922 41.3115 31.9922 43.7362C31.9922 46.161 33.9648 48.1336 36.3896 48.1336C38.8143 48.1336 40.7869 46.161 40.7869 43.7362C40.7868 41.3115 38.8142 39.3389 36.3896 39.3389ZM36.3896 45.6781C35.3187 45.6781 34.4475 44.8068 34.4475 43.736C34.4475 42.6651 35.3188 41.7939 36.3896 41.7939C37.4605 41.7939 38.3317 42.6652 38.3317 43.736C38.3317 44.807 37.4604 45.6781 36.3896 45.6781Z" fill="black"/>
<path d="M37.4727 16.187H19.88C19.202 16.187 18.6523 16.7366 18.6523 17.4147C18.6523 18.0927 19.2021 18.6423 19.88 18.6423H37.4727C38.1507 18.6423 38.7003 18.0927 38.7003 17.4147C38.7003 16.7365 38.1507 16.187 37.4727 16.187Z" fill="#DA370E"/>
<path d="M36.5146 22.562H20.837C20.159 22.562 19.6094 23.1116 19.6094 23.7897C19.6094 24.4677 20.159 25.0173 20.837 25.0173H36.5145C37.1925 25.0173 37.7421 24.4677 37.7421 23.7897C37.7421 23.1117 37.1925 22.562 36.5146 22.562Z" fill="#DA370E"/>
<path d="M49.4475 10.7173C48.9794 10.1427 48.2856 9.8132 47.5443 9.8132H9.30456L8.53229 6.06427C8.37106 5.28224 7.83766 4.62559 7.10514 4.30753L1.71675 1.96865C1.09468 1.69844 0.371724 1.98389 0.1019 2.60577C-0.168218 3.22784 0.117232 3.95089 0.73901 4.22071L6.1275 6.55968L12.0676 35.3938C12.3015 36.5294 13.3129 37.3536 14.4723 37.3536H43.8831C44.5612 37.3536 45.1108 36.804 45.1108 36.1259C45.1108 35.4479 44.5612 34.8983 43.8831 34.8983H14.4724L13.7499 31.3909H44.1105C45.2699 31.3909 46.2813 30.5667 46.5152 29.4311L49.9491 12.7636C50.0986 12.0378 49.9158 11.2918 49.4475 10.7173ZM44.1105 28.9358H13.2441L9.81042 12.2684L47.5442 12.2685L44.1105 28.9358Z" fill="black"/>
</g>
<defs>
<clipPath id="clip0">
<rect width="50" height="50" fill="white"/>
</clipPath>
</defs>
</svg>
