<svg width="27" height="30" viewBox="0 0 27 30" fill="none" xmlns="http://www.w3.org/2000/svg">
<path d="M22.3662 25.5618H18.4768V18.6005C18.4768 16.9406 18.4509 14.8037 16.4539 14.8037C14.4282 14.8037 14.1182 16.6123 14.1182 18.4797V25.5614H10.2289V11.2462H13.9626V13.2025H14.0149C14.3886 12.4723 14.9286 11.8716 15.5773 11.4644C16.2261 11.0572 16.9593 10.8587 17.699 10.8901C21.6411 10.8901 22.3679 13.8535 22.3679 17.7087L22.3662 25.5618ZM5.84022 9.28952C4.59365 9.28976 3.58292 8.13499 3.58271 6.71035C3.58251 5.2857 4.59283 4.13058 5.83939 4.13035C7.08596 4.12999 8.09669 5.28476 8.09689 6.70941C8.097 7.39355 7.85931 8.04973 7.4361 8.53359C7.0129 9.01745 6.43884 9.28937 5.84022 9.28952ZM7.78497 25.5619H3.89146V11.2462H7.78487V25.5618L7.78497 25.5619ZM24.3052 0.00218342H1.93707C0.879888 -0.0114103 0.0129199 0.956441 0 2.16464V27.8349C0.0125098 29.0437 0.879375 30.0125 1.93696 29.9998H24.3052C25.3651 30.0148 26.2353 29.046 26.25 27.8349V2.16265C26.2349 0.952105 25.3646 -0.0156291 24.3052 0.000191237" fill="#0A66C2"/>
</svg>
