<svg width="36" height="34" viewBox="0 0 36 34" fill="none" xmlns="http://www.w3.org/2000/svg">
<path d="M35.7803 31.7893L25.3225 21.9125C27.3061 19.5998 28.5 16.6596 28.5 13.4584C28.5 6.03747 22.1074 0 14.25 0C6.39254 0 0 6.03747 0 13.4584C0 20.8793 6.39261 26.9168 14.2501 26.9168C17.6395 26.9168 20.7527 25.7891 23.2015 23.9158L33.6592 33.7926C33.9522 34.0691 34.427 34.0691 34.72 33.7926L35.7803 32.791C36.0732 32.5144 36.0732 32.0659 35.7803 31.7893ZM14.2501 24.0834C8.04644 24.0834 3.00003 19.3174 3.00003 13.4584C3.00003 7.59942 8.04644 2.83336 14.2501 2.83336C20.4537 2.83336 25.5001 7.59942 25.5001 13.4584C25.5001 19.3174 20.4537 24.0834 14.2501 24.0834Z" fill="#999999" fill-opacity="0.6"/>
</svg>
